<?xml version="1.0" standalone="no"?>
<!DOCTYPE svg PUBLIC "-//W3C//DTD SVG 20010904//EN"
 "http://www.w3.org/TR/2001/REC-SVG-20010904/DTD/svg10.dtd">
<svg version="1.0" xmlns="http://www.w3.org/2000/svg"
 width="827.000000pt" height="827.000000pt" viewBox="0 0 827.000000 827.000000"
 preserveAspectRatio="xMidYMid meet">

<g transform="translate(0.000000,827.000000) scale(0.100000,-0.100000)"
fill="#000000" stroke="none">
<path d="M3895 8136 c-22 -7 -46 -11 -53 -8 -14 4 -41 -7 -165 -69 -43 -21
-86 -39 -95 -39 -9 0 -27 -6 -38 -13 -12 -6 -39 -22 -62 -34 -22 -12 -60 -39
-85 -60 -24 -21 -54 -45 -67 -53 -34 -23 -81 -61 -120 -99 -19 -19 -46 -41
-60 -49 -39 -25 -51 -35 -115 -100 -100 -102 -195 -227 -195 -257 0 -14 -7
-28 -15 -31 -8 -3 -29 -36 -46 -73 -17 -36 -35 -73 -39 -81 -25 -43 -81 -161
-99 -205 -18 -48 -19 -84 -23 -575 -1 -289 1 -535 5 -547 5 -13 14 -23 20 -23
27 0 117 -50 117 -65 0 -8 -5 -15 -11 -15 -7 0 -9 -11 -6 -30 4 -20 1 -34 -10
-45 -25 -25 -39 -4 -26 40 l11 35 -36 0 c-21 0 -46 -3 -58 -6 -27 -7 -64 -88
-64 -140 0 -22 -6 -49 -14 -60 -22 -31 -28 -84 -16 -134 6 -25 16 -65 21 -90
6 -25 17 -59 25 -77 8 -17 14 -39 14 -49 0 -10 11 -41 24 -69 14 -27 27 -62
30 -76 3 -14 22 -44 43 -67 l37 -42 21 26 c17 22 24 24 47 15 29 -11 29 -11
28 -185 0 -52 3 -62 33 -95 31 -34 34 -45 40 -120 4 -48 13 -91 22 -104 8 -12
15 -40 15 -62 0 -22 8 -56 19 -75 10 -19 21 -56 25 -82 4 -25 14 -52 21 -58 8
-7 15 -27 15 -44 0 -17 11 -53 25 -81 13 -27 25 -61 25 -75 0 -14 7 -35 15
-47 8 -12 18 -41 21 -65 7 -50 -4 -66 -149 -222 -42 -45 -93 -105 -133 -158
-27 -36 -48 -51 -85 -63 -27 -9 -51 -20 -54 -25 -3 -4 -21 -11 -42 -15 -20 -4
-48 -15 -61 -26 -14 -10 -32 -19 -41 -19 -9 0 -29 -9 -46 -20 -16 -11 -40 -20
-51 -20 -12 0 -33 -9 -47 -20 -14 -11 -46 -24 -70 -29 -24 -4 -55 -15 -68 -24
-13 -10 -30 -17 -39 -17 -8 0 -32 -9 -53 -20 -20 -11 -43 -20 -49 -20 -7 0
-35 -11 -63 -25 -27 -13 -57 -25 -65 -25 -8 0 -31 -8 -50 -19 -19 -10 -60 -21
-90 -25 -30 -4 -65 -14 -78 -22 -13 -8 -46 -18 -75 -21 -29 -3 -64 -12 -80
-20 -15 -7 -50 -18 -79 -23 -28 -6 -59 -16 -67 -24 -9 -8 -34 -18 -56 -21 -22
-4 -47 -13 -55 -20 -8 -8 -28 -17 -45 -21 -16 -4 -46 -15 -65 -26 -19 -10 -42
-18 -50 -18 -8 0 -32 -9 -52 -20 -21 -11 -57 -23 -80 -26 -24 -4 -57 -15 -74
-25 -17 -11 -42 -19 -55 -19 -13 0 -37 -9 -54 -20 -16 -11 -38 -20 -47 -20 -9
0 -38 -11 -64 -25 -26 -14 -53 -25 -61 -25 -8 0 -26 -9 -40 -20 -14 -11 -40
-20 -57 -20 -17 0 -56 -14 -86 -30 -30 -17 -69 -37 -86 -45 -33 -15 -124 -111
-124 -131 0 -7 -8 -20 -17 -30 -14 -14 -19 -42 -24 -133 -4 -64 -14 -142 -23
-173 -15 -49 -18 -113 -19 -425 -2 -339 -3 -370 -20 -395 -15 -22 -20 -53 -23
-160 -4 -90 -10 -143 -20 -163 -9 -17 -19 -79 -23 -145 -5 -63 -16 -133 -24
-155 -9 -23 -17 -86 -20 -150 -3 -64 -11 -127 -20 -150 -8 -22 -18 -75 -22
-118 -7 -91 -18 -127 -40 -127 -12 0 -15 -13 -15 -60 l0 -60 1809 0 1809 0 16
24 c8 13 18 50 21 81 3 31 10 65 15 75 6 10 10 30 10 45 0 32 41 55 65 35 21
-18 45 -5 45 24 0 14 5 28 10 31 6 3 10 20 10 36 0 18 6 32 16 36 12 4 14 14
9 39 -7 41 11 117 28 111 6 -2 16 -18 21 -35 8 -29 36 -46 36 -22 0 13 57 70
70 70 34 0 -14 -154 -52 -166 -10 -3 -18 -12 -18 -19 0 -8 -10 -25 -23 -38
-36 -38 -57 -67 -57 -77 0 -6 -11 -16 -25 -22 -14 -6 -25 -19 -25 -30 0 -10
-7 -18 -15 -18 -22 0 -18 -38 5 -50 11 -6 20 -17 20 -25 0 -8 9 -20 19 -27 17
-11 18 -14 4 -35 -14 -21 -13 -23 10 -34 20 -9 35 -8 71 4 39 13 47 13 57 1 7
-9 32 -14 70 -14 54 0 60 2 73 27 l14 28 13 -28 12 -27 1959 0 c1560 0 1958 3
1958 13 0 6 -9 31 -20 55 -12 26 -24 85 -30 145 -5 56 -15 120 -22 142 -9 28
-13 122 -13 311 0 258 1 273 20 294 18 20 20 36 20 199 0 166 -1 178 -24 221
-23 42 -24 51 -18 165 3 66 2 152 -4 190 -23 171 -29 225 -35 305 -5 70 -12
93 -35 129 -29 44 -83 91 -106 91 -7 0 -27 16 -45 35 -29 33 -120 84 -177 100
-22 7 -73 37 -116 70 -10 8 -31 15 -45 15 -14 0 -38 9 -55 20 -16 11 -39 20
-49 20 -23 0 -131 50 -189 88 -63 40 -166 92 -184 92 -8 0 -27 8 -41 19 -15
10 -49 21 -75 23 -26 3 -56 13 -66 22 -10 9 -29 16 -43 16 -14 0 -36 8 -49 18
-13 10 -42 27 -64 38 -22 11 -94 49 -160 83 -150 79 -216 113 -280 141 -27 12
-72 33 -100 45 -27 13 -72 33 -100 45 -49 22 -125 56 -175 79 -14 6 -54 27
-90 46 -35 19 -72 35 -81 35 -9 0 -22 7 -29 14 -6 8 -35 20 -64 26 -50 10 -56
15 -94 73 -23 34 -75 107 -117 161 -70 92 -75 103 -75 148 0 43 25 117 60 178
10 18 63 126 79 160 6 14 15 32 19 40 21 37 52 107 58 133 3 15 15 44 25 64
10 21 19 43 19 50 0 7 9 30 20 50 11 21 20 48 20 61 0 28 42 72 69 72 33 0 33
17 1 50 -24 25 -30 39 -30 74 0 35 4 45 20 49 12 3 20 14 20 26 0 53 56 103
91 80 21 -13 39 -11 39 5 0 7 12 35 26 62 64 119 114 220 114 231 0 6 7 19 16
28 34 33 36 196 4 253 -5 9 -21 42 -34 73 -19 44 -33 61 -65 80 -24 13 -41 30
-41 41 0 10 4 18 9 18 5 0 15 17 21 38 7 20 20 51 30 67 10 17 20 63 24 108 4
43 12 90 18 105 6 15 14 65 18 112 4 47 15 107 24 133 9 26 16 73 16 105 1 31
8 111 16 177 9 66 18 168 21 227 4 100 3 111 -21 164 -14 31 -26 67 -26 79 0
13 -10 40 -23 61 -13 22 -32 54 -42 72 -17 27 -25 32 -48 29 -23 -3 -31 1 -38
20 -5 13 -8 27 -8 31 4 22 -4 33 -33 47 -53 25 -116 74 -123 96 -5 14 0 28 13
42 11 12 23 38 26 57 18 92 18 101 2 125 -10 16 -18 52 -20 93 -2 37 -4 79 -5
94 0 15 -11 38 -23 52 -26 29 -57 66 -66 81 -20 31 -114 95 -151 104 -23 5
-59 24 -81 42 -75 65 -95 76 -165 93 -93 23 -191 35 -301 35 -53 1 -130 10
-185 22 -81 18 -137 21 -399 24 -230 3 -315 1 -345 -9z m52 -1252 c12 -2 25
-14 29 -26 17 -53 29 -56 168 -38 85 11 93 10 160 -14 39 -13 89 -27 111 -31
79 -12 141 -28 170 -43 16 -8 75 -19 130 -24 133 -11 145 -11 166 8 18 16 50
12 76 -8 18 -14 92 6 162 43 31 16 61 29 67 29 6 0 24 11 40 25 16 14 37 25
47 25 9 0 31 13 48 30 32 30 77 44 120 38 17 -2 31 -17 49 -53 23 -47 24 -59
22 -200 -2 -191 10 -281 55 -408 34 -95 68 -279 55 -301 -7 -12 -71 0 -91 17
-9 8 -29 19 -46 24 -25 8 -30 15 -33 47 -2 21 -10 40 -18 43 -8 3 -14 12 -14
19 0 8 -11 19 -25 24 -14 5 -25 16 -25 23 0 29 -104 98 -175 116 -22 5 -85 25
-139 45 -58 21 -118 36 -144 36 -28 0 -57 8 -79 21 -29 18 -44 21 -90 16 -37
-4 -67 -1 -92 9 -27 10 -48 12 -83 6 -42 -8 -49 -7 -72 15 -14 13 -26 29 -26
35 0 6 -2 9 -6 6 -3 -3 -26 1 -52 8 -41 13 -48 13 -58 -1 -6 -8 -16 -15 -22
-15 -5 0 -12 -7 -16 -15 -3 -8 -9 -15 -13 -14 -27 4 -52 -4 -73 -23 -14 -13
-28 -22 -33 -20 -32 10 -136 18 -168 12 -24 -5 -36 -4 -32 2 3 6 -3 7 -17 3
-33 -10 -168 -8 -220 4 -68 16 -117 13 -160 -9 -22 -11 -51 -20 -66 -20 -27 0
-93 -29 -167 -74 -45 -27 -127 -115 -127 -136 0 -16 -103 -71 -132 -70 -40 0
-48 -11 -48 -69 0 -65 -11 -81 -55 -81 -17 0 -40 -7 -51 -15 -22 -16 -80 -20
-89 -5 -8 13 7 38 53 89 25 27 45 62 52 90 28 108 52 167 104 254 84 141 89
163 86 364 -1 98 10 119 76 152 43 22 65 24 292 32 135 5 248 12 251 14 5 6
127 -2 168 -11z m-510 -868 c-7 -11 -13 -23 -14 -25 -3 -5 -82 33 -83 41 0 8
67 15 92 9 14 -2 15 -6 5 -25z m-101 -29 c22 -19 25 -28 20 -54 -8 -36 -25
-53 -55 -56 -21 -1 -31 -27 -10 -27 6 0 9 -23 8 -58 -2 -66 18 -108 57 -118
17 -4 27 -18 36 -46 6 -21 21 -44 32 -50 25 -13 106 -78 158 -126 31 -30 43
-35 91 -36 66 -1 80 9 47 34 -22 17 -23 19 -7 25 18 8 60 3 90 -10 12 -5 17
-3 17 9 0 9 8 16 18 16 9 0 30 14 45 30 33 35 42 37 56 13 9 -16 11 -16 28 -2
10 9 30 19 45 23 15 3 36 19 47 35 12 16 31 31 44 35 22 5 47 52 47 89 0 34
17 16 18 -18 1 -20 4 -40 7 -45 3 -5 -6 -17 -20 -26 -15 -10 -25 -26 -25 -41
0 -14 -9 -36 -20 -50 -11 -14 -20 -31 -20 -37 0 -7 -15 -29 -34 -49 -25 -28
-42 -37 -66 -37 -17 0 -44 -8 -58 -19 -24 -17 -46 -18 -218 -17 -167 1 -193 3
-208 19 -12 11 -33 17 -65 17 -80 0 -171 63 -171 119 0 16 -9 40 -20 54 -18
23 -20 39 -19 149 0 68 0 143 0 168 -1 70 8 98 32 103 41 8 46 7 73 -16z m244
13 c13 -9 13 -11 0 -20 -19 -13 -34 -8 -38 13 -4 19 15 22 38 7z m-60 -50 c0
-5 -4 -10 -10 -10 -5 0 -10 5 -10 10 0 6 5 10 10 10 6 0 10 -4 10 -10z m-400
-117 c0 -62 4 -81 20 -98 10 -11 26 -48 35 -81 8 -33 24 -78 35 -99 11 -22 20
-44 20 -50 0 -11 54 -67 112 -116 25 -20 53 -33 80 -36 27 -3 49 -13 60 -27
12 -15 32 -22 74 -26 55 -5 57 -6 40 -23 -24 -23 -14 -44 24 -52 46 -10 59
-50 27 -84 -14 -14 -37 -45 -51 -69 -15 -24 -42 -52 -60 -63 -18 -10 -41 -35
-52 -54 -11 -21 -28 -37 -44 -40 -14 -3 -39 -18 -55 -33 -17 -15 -47 -36 -67
-45 -21 -10 -38 -22 -38 -26 0 -5 -19 -11 -42 -14 -28 -4 -48 -13 -59 -29 -14
-17 -26 -22 -50 -20 -31 4 -31 3 -25 -32 6 -32 4 -36 -24 -51 -26 -13 -29 -19
-19 -31 6 -8 19 -14 28 -14 10 0 25 -6 36 -13 17 -13 16 -15 -13 -28 -36 -16
-43 -48 -12 -56 26 -7 25 -21 -1 -49 l-21 -22 -34 20 c-20 12 -36 31 -40 47
-3 14 -13 41 -21 59 -11 25 -12 36 -3 47 14 17 3 38 -15 31 -18 -6 -45 63 -45
114 0 21 -4 41 -9 44 -4 3 -11 22 -14 43 -3 21 -13 78 -22 127 -8 49 -13 96
-11 105 3 9 8 68 11 131 5 105 11 150 35 280 5 25 12 103 16 175 7 127 8 130
37 157 49 44 115 50 102 8 -3 -10 -1 -21 4 -24 17 -11 22 12 12 48 -10 38 -7
46 21 46 16 0 18 -9 18 -77z m2290 49 c0 -39 11 -47 31 -21 21 28 71 19 87
-15 17 -38 5 -200 -18 -246 -11 -22 -20 -51 -20 -65 0 -14 -9 -33 -20 -42 -11
-10 -20 -27 -20 -39 0 -29 -10 -54 -21 -54 -4 0 -24 -16 -43 -35 -19 -19 -50
-41 -70 -49 -48 -20 -40 -46 15 -46 39 0 51 7 109 64 57 56 70 71 70 84 0 6
11 19 24 28 19 12 26 26 28 57 2 35 7 43 25 45 33 5 36 -22 30 -281 -4 -180
-9 -242 -22 -279 -12 -33 -14 -52 -6 -65 7 -15 5 -22 -10 -32 -19 -11 -20 -19
-13 -91 4 -56 3 -80 -4 -80 -22 0 -35 43 -29 99 5 44 2 61 -11 77 -24 29 -51
37 -68 19 -19 -18 -43 -19 -50 -2 -2 7 -17 14 -31 15 -39 3 -44 11 -51 87 -4
38 -12 70 -18 72 -6 2 -31 -16 -55 -40 -44 -44 -44 -44 -97 -37 -29 3 -58 12
-64 18 -17 17 -69 15 -90 -5 -22 -20 -71 -21 -92 -3 -17 14 -21 66 -7 89 5 8
6 24 1 37 -11 28 -2 61 18 69 10 4 51 8 92 10 135 7 240 17 240 25 0 13 -117
20 -234 15 -100 -5 -115 -4 -136 13 -31 25 -20 39 44 52 30 6 60 17 66 25 6 8
39 33 72 57 33 24 79 60 101 81 21 20 43 37 48 37 5 0 18 15 29 32 16 26 30
35 67 43 40 9 51 16 70 50 12 22 24 44 26 48 2 8 27 15 60 16 20 1 23 31 3 31
-31 0 -104 60 -111 90 -10 44 2 70 31 70 20 0 24 -5 24 -28z m-1821 -36 c14
-22 21 -50 21 -82 0 -52 -12 -84 -24 -65 -4 6 -16 11 -26 11 -22 0 -30 18 -19
46 6 17 3 24 -17 33 -29 13 -30 30 -3 65 27 35 43 33 68 -8z m624 -40 c-3 -20
-9 -33 -14 -30 -11 6 -12 88 -2 98 12 12 22 -31 16 -68z m-396 17 c-3 -10 -5
-4 -5 12 0 17 2 24 5 18 2 -7 2 -21 0 -30z m614 -8 c0 -5 -9 -11 -21 -13 -20
-3 -27 8 -13 22 10 9 34 3 34 -9z m309 1 c0 -3 -4 -8 -10 -11 -5 -3 -10 -1
-10 4 0 6 5 11 10 11 6 0 10 -2 10 -4z m130 -42 c0 -26 -9 -31 -27 -13 -9 9
-9 16 0 30 14 23 27 15 27 -17z m283 -71 c-9 -14 -25 -23 -40 -23 -23 0 -23 1
-9 22 9 12 16 32 16 44 l0 22 24 -21 c22 -20 23 -23 9 -44z m-1737 37 c8 0 14
-6 14 -14 0 -19 -47 -27 -61 -10 -14 17 -2 37 18 30 8 -3 21 -6 29 -6z m1076
-130 c14 -30 29 -68 32 -85 4 -16 13 -37 21 -45 7 -8 16 -33 20 -54 12 -72 35
-113 90 -160 30 -26 55 -55 55 -65 0 -9 5 -22 12 -29 8 -8 5 -14 -15 -23 -23
-10 -30 -9 -48 7 -19 17 -48 24 -196 50 -59 11 -80 -1 -88 -47 -6 -35 -12 -43
-42 -56 -44 -18 -85 -5 -124 40 l-26 30 -64 -17 c-35 -10 -71 -24 -79 -31 -27
-23 -59 -28 -66 -11 -3 9 -12 16 -20 16 -23 0 -16 37 14 68 15 16 59 53 97 82
85 65 104 87 105 121 0 14 9 34 20 44 11 10 20 23 20 30 0 7 9 20 20 30 11 10
20 31 20 48 0 46 89 137 146 149 29 6 68 -31 96 -92z m1109 -33 c-8 -8 -11 5
-11 44 0 72 14 86 18 18 2 -28 -2 -57 -7 -62z m-2903 66 c-1 -5 4 -24 11 -43
l13 -35 9 25 c13 33 32 43 41 22 11 -27 9 -153 -3 -197 -6 -22 -25 -75 -42
-118 l-30 -79 26 -53 c20 -41 23 -56 14 -63 -15 -13 -55 20 -82 66 -11 18 -23
32 -29 32 -5 0 -6 27 -1 68 10 91 10 108 1 174 -5 32 -5 69 -2 84 6 23 11 26
36 20 17 -3 32 -1 36 6 4 6 3 8 -3 5 -5 -4 -20 3 -32 14 l-21 20 20 30 c19 26
43 40 38 22z m2041 -257 c6 -7 29 -16 50 -20 44 -7 73 -32 48 -42 -8 -3 -34
-4 -58 -2 -34 2 -46 8 -54 25 -5 12 -17 24 -27 26 -10 3 -18 10 -18 16 0 16
45 14 59 -3z m-721 -836 c7 -19 60 -40 102 -40 28 0 47 -7 62 -22 l22 -22 -34
-14 c-39 -16 -104 -3 -114 23 -3 9 -18 15 -35 15 -16 0 -36 6 -43 13 -7 7 -28
19 -45 26 -37 15 -42 27 -15 35 27 8 96 -2 100 -14z m-858 -100 c0 -11 -4 -20
-10 -20 -5 0 -10 9 -10 20 0 11 5 20 10 20 6 0 10 -9 10 -20z m-22 -843 c6 -7
14 -41 18 -77 4 -39 15 -76 27 -94 11 -16 21 -44 22 -63 1 -18 11 -43 21 -54
12 -13 17 -32 15 -55 -1 -19 2 -34 7 -34 5 0 15 -15 22 -32 44 -114 97 -186
182 -251 67 -51 164 -131 169 -139 4 -5 16 -15 27 -21 11 -7 62 -46 114 -88
51 -41 116 -90 143 -109 28 -18 65 -46 83 -62 29 -25 31 -29 15 -35 -10 -3
-39 -24 -65 -45 -53 -44 -73 -94 -62 -153 3 -19 4 -42 0 -50 -9 -24 -50 1 -75
46 -21 37 -41 51 -41 29 0 -5 -7 -10 -16 -10 -20 0 -154 -110 -154 -126 0 -7
-8 -18 -17 -23 -27 -16 4 -14 52 4 61 22 83 18 115 -16 23 -26 27 -38 23 -66
-5 -31 -3 -35 26 -46 27 -10 31 -16 31 -49 0 -27 6 -40 19 -48 23 -12 81 -121
81 -153 0 -12 9 -37 20 -55 13 -21 23 -60 27 -107 6 -80 -9 -138 -65 -250 -24
-49 -34 -62 -81 -111 -20 -20 -22 -28 -14 -47 9 -19 5 -33 -18 -77 -16 -30
-29 -60 -29 -66 0 -14 -71 -134 -79 -134 -17 0 -61 54 -61 75 0 35 -20 74 -42
80 -10 4 -18 14 -18 23 0 10 -3 12 -9 6 -6 -5 -4 -46 5 -109 9 -55 16 -152 16
-215 1 -98 -1 -121 -19 -155 -11 -22 -23 -57 -27 -77 -4 -21 -11 -38 -16 -38
-6 0 -10 1 -10 3 0 1 -8 47 -16 102 -9 55 -17 116 -18 135 -1 19 -5 44 -9 56
-4 12 -12 50 -17 85 -5 35 -16 98 -24 139 -8 41 -15 97 -16 123 0 26 -7 64
-15 84 -8 19 -18 74 -21 122 -3 47 -13 107 -22 133 -13 41 -14 52 -2 88 12 35
12 43 0 50 -30 19 -41 284 -13 326 14 22 15 31 4 60 -7 19 -12 53 -12 76 0 24
-4 57 -9 73 -5 17 -14 113 -21 215 -7 118 -17 198 -26 220 -32 73 -73 214 -73
247 0 18 -9 52 -21 75 -15 29 -24 74 -30 147 -5 57 -16 128 -25 155 -21 68
-30 278 -15 334 12 44 21 51 39 29z m2002 -257 c0 -19 -8 -51 -19 -70 -10 -19
-21 -66 -25 -105 -4 -38 -13 -76 -20 -85 -8 -8 -16 -41 -18 -72 -3 -32 -11
-66 -20 -75 -8 -10 -22 -38 -31 -63 -33 -98 -49 -135 -67 -160 -10 -14 -22
-38 -25 -53 -4 -14 -16 -29 -26 -32 -12 -4 -19 -16 -20 -33 -5 -131 -7 -164
-19 -212 -7 -30 -18 -73 -26 -95 -7 -22 -20 -73 -28 -114 -8 -41 -23 -83 -34
-95 -14 -15 -21 -42 -25 -93 -3 -39 -13 -86 -23 -105 -9 -18 -18 -46 -19 -63
-1 -16 -2 -48 -3 -71 -2 -39 -16 -62 -66 -102 -22 -17 -20 -39 4 -59 11 -10
20 -26 20 -36 0 -10 -9 -30 -20 -44 -15 -19 -20 -41 -20 -84 0 -48 -4 -60 -20
-69 -14 -8 -20 -21 -20 -48 0 -51 -10 -82 -26 -82 -19 0 -23 11 -25 78 -1 34
-6 62 -10 62 -5 0 -9 -4 -9 -10 0 -5 -9 -10 -20 -10 -29 0 -36 -27 -14 -51 17
-19 17 -21 -9 -43 -15 -13 -27 -34 -27 -47 0 -30 -10 -44 -32 -45 -24 -2 -51
76 -43 124 4 26 0 54 -12 88 -10 27 -17 66 -15 88 3 34 8 40 43 54 33 13 44
25 68 76 48 101 59 152 50 233 -4 39 -12 81 -18 92 -6 11 -11 29 -11 40 0 11
-11 32 -24 46 -15 16 -22 33 -19 46 5 16 7 17 17 6 6 -8 21 -17 34 -20 27 -6
37 22 30 91 -7 66 -47 119 -148 194 -102 76 -181 116 -243 124 -57 8 -60 19
-8 28 22 3 53 17 69 31 17 14 38 25 48 25 18 0 145 79 192 120 13 11 30 20 38
20 8 0 14 4 14 8 0 4 15 16 33 27 17 10 37 24 42 30 30 34 116 95 134 95 12 0
28 12 37 28 10 15 41 52 71 82 29 30 76 82 104 115 29 33 66 76 83 95 51 58
126 179 126 205 0 8 5 26 12 40 11 25 13 26 25 9 7 -10 13 -34 13 -54z m-1440
-490 c0 -5 -4 -10 -10 -10 -5 0 -10 5 -10 10 0 6 5 10 10 10 6 0 10 -4 10 -10z
m260 -90 c0 -13 -5 -18 -15 -14 -16 7 -19 17 -8 27 12 13 23 7 23 -13z m-21
-578 c-1 -4 -8 -16 -15 -27 -13 -17 -16 -18 -24 -5 -15 23 -23 58 -16 75 4 12
10 10 30 -10 14 -14 25 -29 25 -33z m61 -72 c13 -25 9 -90 -5 -92 -5 -1 -18
14 -27 33 -9 19 -22 39 -27 46 -8 9 -6 15 7 22 26 16 40 13 52 -9z m50 -159
c0 -101 -2 -146 -6 -150 -12 -13 -19 21 -23 112 -3 92 -2 100 13 88 10 -8 16
-29 16 -50z m27 -348 c-2 -21 -4 -6 -4 32 0 39 2 55 4 38 2 -18 2 -50 0 -70z
m1592 -56 c8 -11 7 -18 -7 -30 -16 -14 -21 -15 -37 -3 -11 8 -16 20 -12 30 8
19 40 21 56 3z m-1619 -51 c0 -3 -4 -8 -10 -11 -5 -3 -10 -1 -10 4 0 6 5 11
10 11 6 0 10 -2 10 -4z m133 -50 c6 -15 -1 -26 -15 -26 -4 0 -8 9 -8 20 0 23
15 27 23 6z m64 -8 c-3 -8 -6 -5 -6 6 -1 11 2 17 5 13 3 -3 4 -12 1 -19z
m1373 14 c0 -16 -58 -64 -69 -58 -18 11 -13 34 11 50 24 17 58 21 58 8z
m-1402 -74 c-3 -34 -20 -42 -26 -13 -5 22 5 45 18 45 7 0 10 -14 8 -32z m-138
-99 c0 -11 -4 -18 -10 -14 -5 3 -7 12 -3 20 7 21 13 19 13 -6z m162 -119 l21
-17 -29 -26 c-16 -15 -32 -27 -35 -27 -13 0 -9 144 4 152 8 5 13 -3 15 -29 2
-21 12 -43 24 -53z m18 -104 c0 -18 -10 -25 -26 -19 -8 3 -14 16 -14 29 0 22
3 23 20 14 11 -6 20 -17 20 -24z m-215 -36 c9 -14 -4 -52 -16 -45 -12 8 -12
55 0 55 6 0 13 -5 16 -10z m166 -27 c-10 -17 -10 -16 -11 3 0 23 13 41 18 25
2 -6 -1 -18 -7 -28z m-132 -217 c-5 -6 -8 23 -8 70 l2 79 7 -70 c4 -39 4 -74
-1 -79z m111 90 c0 -47 -20 -102 -31 -84 -10 15 -12 79 -3 102 11 30 34 18 34
-18z m-203 -28 c-3 -8 -6 -5 -6 6 -1 11 2 17 5 13 3 -3 4 -12 1 -19z m-32 -98
c-2 -66 -4 -73 -25 -60 -11 7 -12 17 -1 64 7 31 16 56 20 56 4 0 7 -27 6 -60z
m91 -126 c-3 -8 -10 -14 -16 -14 -11 0 -14 43 -3 54 10 10 26 -23 19 -40z m84
-31 c0 -18 -4 -33 -9 -33 -17 0 -22 19 -15 56 8 43 24 27 24 -23z m-30 -138
c0 -16 -6 -25 -15 -25 -9 0 -15 9 -15 25 0 16 6 25 15 25 9 0 15 -9 15 -25z
m-23 -87 c-3 -8 -6 -5 -6 6 -1 11 2 17 5 13 3 -3 4 -12 1 -19z m-297 -48 c0
-5 -4 -10 -10 -10 -5 0 -10 5 -10 10 0 6 5 10 10 10 6 0 10 -4 10 -10z m270
-79 c0 -37 -27 -50 -36 -16 -7 28 1 45 22 45 9 0 14 -10 14 -29z m-50 -136 c0
-8 -7 -15 -15 -15 -26 0 -18 20 13 29 1 1 2 -6 2 -14z"/>
<path d="M3845 5430 c3 -5 8 -10 11 -10 2 0 4 5 4 10 0 6 -5 10 -11 10 -5 0
-7 -4 -4 -10z"/>
<path d="M2980 4760 c0 -5 5 -10 10 -10 6 0 10 5 10 10 0 6 -4 10 -10 10 -5 0
-10 -4 -10 -10z"/>
<path d="M3010 4731 c0 -22 23 -34 38 -19 15 15 3 38 -19 38 -12 0 -19 -7 -19
-19z"/>
<path d="M5421 5554 c0 -11 3 -14 6 -6 3 7 2 16 -1 19 -3 4 -6 -2 -5 -13z"/>
<path d="M4924 5127 c-3 -9 1 -25 9 -37 l14 -21 6 23 c8 29 -19 61 -29 35z"/>
<path d="M3840 2550 c0 -5 7 -10 15 -10 8 0 15 5 15 10 0 6 -7 10 -15 10 -8 0
-15 -4 -15 -10z"/>
<path d="M3410 2200 c0 -5 5 -10 10 -10 6 0 10 5 10 10 0 6 -4 10 -10 10 -5 0
-10 -4 -10 -10z"/>
<path d="M3667 2094 c-12 -13 -7 -61 7 -73 12 -10 17 -8 26 9 6 12 10 31 8 43
-3 22 -28 34 -41 21z"/>
<path d="M3414 2061 c3 -5 15 -7 26 -4 28 7 25 13 -6 13 -14 0 -23 -4 -20 -9z"/>
<path d="M3497 1873 c-4 -3 -7 -12 -7 -20 0 -15 26 -18 34 -4 7 11 -18 33 -27
24z"/>
<path d="M3756 1814 c-6 -17 7 -26 28 -18 22 8 20 21 -3 27 -11 3 -22 -1 -25
-9z"/>
<path d="M3844 1797 c-9 -24 0 -52 16 -52 21 0 24 39 6 55 -13 10 -17 9 -22
-3z"/>
<path d="M3624 1596 c-8 -21 -1 -49 14 -54 8 -2 12 7 12 27 0 33 -17 51 -26
27z"/>
<path d="M3451 1363 c-8 -29 -8 -41 3 -51 8 -8 19 -11 25 -8 16 10 13 71 -3
85 -12 10 -17 6 -25 -26z"/>
<path d="M3703 1303 c-19 -7 -15 -31 7 -43 15 -8 21 -7 28 7 17 33 -1 50 -35
36z"/>
<path d="M4323 2464 c-3 -8 -1 -25 5 -37 l10 -22 10 25 c10 27 6 50 -9 50 -5
0 -12 -7 -16 -16z"/>
<path d="M4529 2134 c-13 -25 -12 -28 19 -55 40 -36 50 -36 63 -2 11 31 6 53
-14 53 -8 0 -20 7 -27 15 -17 21 -25 19 -41 -11z"/>
<path d="M4670 2066 c0 -8 4 -17 9 -20 11 -7 33 18 24 27 -12 12 -33 7 -33 -7z"/>
<path d="M4527 1833 c-13 -12 -7 -41 9 -47 22 -9 34 1 34 30 0 17 -6 24 -18
24 -10 0 -22 -3 -25 -7z"/>
</g>
</svg>
